<?xml version="1.0" encoding="UTF-8" standalone="no"?>
<!-- Created with Inkscape (http://www.inkscape.org/) -->

<svg
   version="1.1"
   id="svg2"
   xml:space="preserve"
   width="40"
   height="40"
   viewBox="0 0 40.000001 40"
   xmlns="http://www.w3.org/2000/svg"
   xmlns:svg="http://www.w3.org/2000/svg"><defs
     id="defs6" /><g
     id="g8"
     transform="matrix(1.3333333,0,0,-1.3333333,0,65.653333)"><g
       id="g10"
       transform="matrix(0.06092681,0,0,0.06092681,0,19.239561)"><path
         d="M 123.098,492.398 C 55.1172,492.398 0,437.289 0,369.301 V 123.098 C 0,55.1133 55.1172,0.00390625 123.098,0.00390625 h 246.203 c 67.984,0 123.101,55.10939375 123.101,123.09409375 v 369.3 H 123.098"
         style="fill:#b1ec52;fill-opacity:1;fill-rule:nonzero;stroke:none"
         id="path12" /><path
         d="m 134.578,295.777 c -4.027,17.61 13.543,33.192 36.27,33.192 20.472,0 40.992,-4.59 48.8,-33.133 h 26.243 v -43.559 c -32.719,26.895 -103.653,10.02 -111.313,43.5 z m 272.301,12.059 h -59.117 l -56.239,-61.594 v 123.059 h -45.632 v -29.817 c -1.489,1.922 -3.059,3.832 -4.817,5.696 -16.594,17.566 -40.5,26.472 -71.066,26.472 -35.348,0 -55.445,-15.82 -66.082,-29.089 -13.2112,-16.473 -19.1096,-38.958 -15.0276,-57.278 10.5743,-47.426 54.5816,-55 86.9106,-59.203 25.523,-3.32 49.941,-7.953 49.293,-30.703 -0.676,-23.609 -27.289,-29.414 -44.758,-29.414 -45.496,0 -47.031,33.629 -47.031,33.629 H 84.3828 c 0.7149,-12.629 4.5313,-32.903 20.0782,-50.301 17.023,-19.063 42.555,-28.723 75.883,-28.723 25.566,0 48.855,8.328 65.547,23.118 v -20.325 h 45.632 v 58.09 l 16.145,17.66 46.09,-75.75 h 53.105 l -67.07,110.946 67.086,73.527"
         style="fill:#424b52;fill-opacity:1;fill-rule:nonzero;stroke:none"
         id="path14" /></g></g></svg>
